Coordinates
version=1
nRows=21
nColumns=12
inDegrees=yes

Units are S.I. units (second, meters, Newtons, ...)
Angles are in degrees

endheader
time	SC_y	SC_z	SC_x	AC_y	AC_z	AC_x	GH_y	GH_z	GH_yy	EL_x	PS_y
       0.0              -23.63          19.31          47.15          41.61         -11.73          2.765         -34.76          50.72          63.32           80.6          66.76
  0.001263              -23.64          19.31          47.15          41.61         -11.73          2.764         -34.75          50.72          63.31          80.61          66.76
  0.002526              -23.64          19.31          47.15          41.62         -11.73          2.763         -34.74          50.72           63.3          80.61          66.76
  0.003789              -23.64          19.31          47.14          41.62         -11.73          2.761         -34.73          50.72          63.29          80.62          66.76
  0.005051              -23.64          19.31          47.14          41.62         -11.73           2.76         -34.72          50.71          63.27          80.63          66.76
  0.006314              -23.64           19.3          47.13          41.63         -11.73          2.758         -34.71          50.71          63.26          80.64          66.76
  0.007577              -23.64           19.3          47.13          41.63         -11.72          2.757          -34.7          50.71          63.25          80.65          66.76
   0.00884              -23.64           19.3          47.13          41.64         -11.72          2.755         -34.69          50.71          63.24          80.66          66.76
    0.0101              -23.65           19.3          47.12          41.64         -11.72          2.753         -34.68          50.71          63.22          80.67          66.76
   0.01137              -23.65           19.3          47.12          41.65         -11.72          2.751         -34.67          50.71          63.21          80.68          66.76
   0.01263              -23.65           19.3          47.11          41.65         -11.72          2.749         -34.65          50.71          63.19          80.69          66.76
   0.01389              -23.65           19.3          47.11          41.66         -11.71          2.747         -34.64          50.71          63.17           80.7          66.76
   0.01515              -23.65          19.29           47.1          41.67         -11.71          2.744         -34.62          50.71          63.15          80.72          66.76
   0.01642              -23.66          19.29          47.09          41.67         -11.71          2.742         -34.61           50.7          63.13          80.73          66.76
   0.01768              -23.66          19.29          47.08          41.68          -11.7          2.739         -34.59           50.7          63.11          80.75          66.76
   0.01894              -23.66          19.29          47.08          41.69          -11.7          2.736         -34.57           50.7          63.08          80.77          66.76
   0.02021              -23.67          19.28          47.07           41.7          -11.7          2.732         -34.55           50.7          63.05          80.79          66.76
   0.02147              -23.67          19.28          47.06          41.71         -11.69          2.728         -34.52           50.7          63.02          80.81          66.76
   0.02273              -23.67          19.28          47.05          41.72         -11.69          2.724          -34.5          50.69          62.99          80.83          66.76
   0.02399              -23.68          19.28          47.04          41.73         -11.68           2.72         -34.47          50.69          62.96          80.86          66.76
   0.02526              -23.68          19.27          47.02          41.75         -11.68          2.715         -34.44          50.69          62.92          80.88          66.76
